<svg width="14" height="18" fill="none" xmlns="http://www.w3.org/2000/svg"><path d="M13.373 10.2a1.942 1.942 0 0 0-1.94-1.955h-.528l2.32-5.598A1.942 1.942 0 0 0 12.177.112a1.942 1.942 0 0 0-2.534 1.05l-1.45 3.502-1.45-3.502A1.942 1.942 0 0 0 4.206.112a1.942 1.942 0 0 0-1.05 2.534l1.26 3.043c-.159.094-.303.21-.429.343a1.935 1.935 0 0 0-1.412-.612c-1.07 0-1.94.87-1.94 1.94v4.236a6.376 6.376 0 0 0 6.37 6.369 6.376 6.376 0 0 0 6.368-6.369V10.2ZM4.611 1.087a.886.886 0 0 1 1.156.479l1.937 4.678a.528.528 0 0 0 .975 0l1.938-4.678a.886.886 0 0 1 1.634.677L9.763 8.245H7.34V7.36A1.942 1.942 0 0 0 5.448 5.42L4.132 2.244a.886.886 0 0 1 .479-1.156Zm.79 7.158c-.32 0-.62.078-.885.214v-1.1a.886.886 0 0 1 1.77 0v.886H5.4ZM1.69 7.36a.886.886 0 0 1 1.77 0v2.824a.886.886 0 0 1-1.77 0V7.36Zm5.314 9.55a5.32 5.32 0 0 1-5.304-4.996 1.934 1.934 0 0 0 2.287-.403c.354.377.856.613 1.413.613h4.621a.527.527 0 1 0 0-1.055H5.401a.886.886 0 0 1 0-1.77h6.033c.486 0 .882.394.885.88v1.417a5.32 5.32 0 0 1-5.314 5.314Z" fill="#FFBC33"/></svg>