<svg  fill="none" xmlns="http://www.w3.org/2000/svg"><path d="M9.249 6.8v-.01c0-.713-.58-1.293-1.293-1.293h-.353l1.548-3.733a1.295 1.295 0 0 0-.7-1.689 1.294 1.294 0 0 0-1.69.7l-.967 2.334L4.827.775a1.295 1.295 0 0 0-1.689-.7 1.294 1.294 0 0 0-.7 1.69l.84 2.028c-.106.062-.202.14-.286.229a1.29 1.29 0 0 0-.941-.408c-.713 0-1.293.58-1.293 1.293V7.73a4.25 4.25 0 0 0 4.246 4.246A4.25 4.25 0 0 0 9.249 7.73V6.8ZM3.407.725a.59.59 0 0 1 .77.319L5.47 4.163a.352.352 0 0 0 .65 0l1.291-3.12a.59.59 0 0 1 1.09.452l-1.66 4.002H5.228v-.59c0-.703-.563-1.275-1.261-1.293l-.878-2.119a.59.59 0 0 1 .32-.77Zm.527 4.772c-.213 0-.413.051-.59.143v-.733a.59.59 0 0 1 1.18 0v.59h-.59Zm-2.473-.59a.59.59 0 0 1 1.18 0v1.882a.59.59 0 0 1-1.18 0V4.907Zm3.543 6.367a3.547 3.547 0 0 1-3.536-3.331 1.285 1.285 0 0 0 1.524-.269c.236.251.57.408.942.408h3.08a.352.352 0 1 0 0-.703h-3.08a.59.59 0 0 1 0-1.18H7.956a.59.59 0 0 1 .59.587V7.73a3.547 3.547 0 0 1-3.542 3.543Z" fill="#FFBC33"/></svg>