<svg width="18" height="18"  xmlns="http://www.w3.org/2000/svg"><path d="M12.691 13.781v1.406A2.816 2.816 0 0 1 9.88 18H2.813A2.816 2.816 0 0 1 0 15.187V2.813A2.816 2.816 0 0 1 2.813 0h7.066a2.816 2.816 0 0 1 2.812 2.813v1.406a.703.703 0 1 1-1.406 0V2.812c0-.775-.63-1.406-1.406-1.406H2.813c-.776 0-1.407.631-1.407 1.407v12.374c0 .776.631 1.407 1.407 1.407h7.066c.775 0 1.406-.631 1.406-1.407v-1.406a.703.703 0 1 1 1.406 0Zm4.794-5.989-1.574-1.574a.703.703 0 1 0-.995.994l1.12 1.12H7.594a.703.703 0 1 0 0 1.406h8.442l-1.12 1.12a.703.703 0 1 0 .995.995l1.574-1.575a1.76 1.76 0 0 0 0-2.486Z" /></svg>