<svg width="26" height="26" fill="none" xmlns="http://www.w3.org/2000/svg"><path d="M14.516 15.565V26H23.1a2.02 2.02 0 0 0 2.02-2.02v-8.415H14.517ZM11.48 15.565H.88v8.415A2.02 2.02 0 0 0 2.9 26h8.58V15.565ZM3.636 23.88a.759.759 0 0 1-.759-.759v-4.21a.759.759 0 0 1 1.518 0v4.21c0 .419-.34.759-.76.759ZM23.757 7.653h-3.795c.524-.252.963-.511 1.23-.777a4.004 4.004 0 1 0-5.663-5.661c-.65.649-1.274 2.252-1.784 3.903a2.783 2.783 0 0 0-.74-.111c-.258 0-.503.046-.74.11-.511-1.666-1.142-3.29-1.797-3.945A3.99 3.99 0 0 0 7.638 0a4.004 4.004 0 0 0-2.83 6.834c.278.28.75.555 1.315.819h-3.88a2.02 2.02 0 0 0-2.02 2.02v1.718a2.02 2.02 0 0 0 2.02 2.02h9.238V7.733h3.035v5.678h9.241a2.02 2.02 0 0 0 2.02-2.02V9.672a2.02 2.02 0 0 0-2.02-2.02ZM16.96 2.645c.373-.373.87-.58 1.4-.58.53 0 1.026.207 1.4.58.374.374.58.871.58 1.4 0 .53-.206 1.027-.577 1.398-.418.394-2.055 1.009-4.08 1.581a2.702 2.702 0 0 0-.231-.558c.551-1.904 1.13-3.421 1.508-3.82ZM6.237 2.603c.374-.373.872-.58 1.4-.58.53 0 1.027.206 1.4.579.38.403.966 1.94 1.52 3.864a2.768 2.768 0 0 0-.221.522c-2.034-.573-3.68-1.19-4.099-1.585a1.983 1.983 0 0 1 0-2.8Z" fill="#FFBC33"/></svg>